<?xml version="1.0" encoding="UTF-8"?>
<svg xmlns="http://www.w3.org/2000/svg" viewBox="0 0 171.97 51.898">
  <defs>
    <style>
      .cls-1, .cls-3 {
        fill: #28335a;
      }

      .cls-1 {
        fill-rule: evenodd;
      }

      .cls-2 {
        fill: #428cbf;
      }
    </style>
  </defs>
  <g id="Enova_Color_Logo" data-name="Enova Color Logo" transform="translate(85.985 25.949)">
    <g id="Enova_Color_Logo-2" data-name="Enova Color Logo" transform="translate(-85.985 -25.949)">
      <path id="Path_3299" data-name="Path 3299" class="cls-1" d="M195.262,45.647V42.928a8.7,8.7,0,0,0,4.675-1.472V36.963a27.913,27.913,0,0,0-4.672-.367V33.877a29.032,29.032,0,0,1,4.672.353v-1.8q0-2.951-4.672-3.094V26.622q8.028.164,8.028,6.086V45.671h-1.706l-1.338-1.344A11.682,11.682,0,0,1,195.262,45.647Zm0-19.025v2.719c-.148-.005-.3-.005-.466-.005a21.322,21.322,0,0,0-6.026.905V27.521a21.535,21.535,0,0,1,6.026-.907C194.955,26.614,195.109,26.622,195.262,26.622Zm0,7.255V36.6h-.3q-4.366,0-4.37,3.081,0,3.278,3.809,3.274c.3,0,.582-.007.863-.024v2.719c-.286.016-.567.024-.863.024q-7.171,0-7.17-5.935,0-5.861,7.731-5.859ZM155.747,45.654v-2.7h0q5.716,0,5.72-6.885,0-6.73-5.72-6.73h0V26.614h0q9.064,0,9.076,9.53,0,9.506-9.076,9.51Zm11.205-19.039h3.634l5.465,14.935,5.416-14.935H185.1l-7.751,19.058h-3.112Zm-51.469,0q8.747,0,7.057,10.49H114.6v-2.8h4.873q.251-5.008-4.535-5.01c-.112,0-.226,0-.337.005V26.637c.286-.015.582-.023.884-.023ZM114.6,42.751a14.088,14.088,0,0,0,2.482.2,24.049,24.049,0,0,0,5.05-.546v2.718a29.46,29.46,0,0,1-6.141.548c-.484,0-.949-.019-1.393-.053V42.749Zm41.147-16.135v2.723q-5.715,0-5.715,6.73,0,6.877,5.715,6.885v2.7q-8.672,0-9.072-9.511,0-9.525,9.075-9.53ZM126.752,45.673V26.614h2.274l.593,2.428a12.1,12.1,0,0,1,6.97-2.428q6.6,0,6.593,7.093V45.671h-3.361V33.659q0-4.247-4.229-4.252a8.021,8.021,0,0,0-5.485,2.416V45.671ZM114.6,37.1H109.7q0,4.762,4.893,5.646V45.62q-8.244-.683-8.243-9.691,0-8.851,8.243-9.29V29.3q-4.574.175-4.893,5H114.6Z" transform="translate(-39.71 -9.938)"/>
      <g id="Group_488" data-name="Group 488">
        <path id="Path_3300" data-name="Path 3300" class="cls-2" d="M12.7,66.565c28.221,10.047,42.353-9.687,42.353-9.687l1.281-9.963C43.717,73.336,12.7,66.565,12.7,66.565Z" transform="translate(-4.742 -17.517)"/>
        <path id="Path_3301" data-name="Path 3301" class="cls-2" d="M58.272,7.2s3.741,9.885-23.453,21.236c-.118.05-7.774,2.9-7.9,2.949l5.571,6.2s7.648-2.842,7.855-2.924c2.158-.842,14.641-5.922,18.016-11.827C60.131,19.739,61.221,13.249,58.272,7.2Z" transform="translate(-10.053 -2.689)"/>
        <path id="Path_3302" data-name="Path 3302" class="cls-2" d="M15.03,14.6C20.884,11.15,26.04,9.941,31.6,10.47c0,0,5.906-5.586-.5-9.63,0,0-9.751-4.032-22.12,5.577C-1.836,14.813-.3,25.654.7,28.411c1.721,4.731,4.343,8.111,11.718,10.941C12.422,39.352-3.464,25.475,15.03,14.6Z" transform="translate(0 0)"/>
      </g>
      <path id="Path_3303" data-name="Path 3303" class="cls-3" d="M268.663,53.275a1.808,1.808,0,0,1,3.616,0q0,1.738-1.813,1.739a1.593,1.593,0,0,1-1.8-1.739Zm1.8,1.5a1.335,1.335,0,0,0,1.508-1.513,1.5,1.5,0,1,0-3,0,1.33,1.33,0,0,0,1.5,1.513Zm-.738-.386V52.148h.959q.642,0,.641.536,0,.439-.627.65l.771,1.06h-.382l-.717-1.009V53.2q.645-.1.645-.5,0-.309-.36-.31h-.641V54.39Z" transform="translate(-100.309 -19.218)"/>
    </g>
  </g>
</svg>
